<?xml version="1.0" encoding="UTF-8" standalone="no"?>
<svg xmlns="http://www.w3.org/2000/svg" xmlns:xlink="http://www.w3.org/1999/xlink" width="43" height="42" viewBox="0 0 43 42">
  <defs>
    <mask id="mask">
        <rect fill="white" x="-1" y="-1" width="100" height="100" />
        <path fill="black" d="M30.4725 31.4524H20.5902C20.2101 31.4524 19.925 31.4524 19.6399 31.2624C19.3549 31.1674 19.1648 30.8823 18.9748 30.5972C18.8798 30.4072 18.8798 30.1221 18.8798 29.742V27.4615C18.8798 27.0814 18.8798 26.7963 19.0698 26.5113C19.1648 26.2262 19.4499 26.0362 19.735 25.8461C20.02 25.6561 20.3051 25.6561 20.6852 25.6561H22.6807V23.5656C22.6807 23.1855 22.6807 22.9004 22.8707 22.6153C22.9657 22.3303 23.2508 22.1402 23.5359 21.9502C23.8209 21.7601 24.106 21.7601 24.4861 21.7601H26.4816V19.6696C26.4816 19.2896 26.4816 19.0045 26.6716 18.7194C26.7666 18.4344 27.0517 18.2443 27.3368 18.0543C27.5268 18.1493 27.8119 18.1493 28.192 18.1493H30.4725C30.8526 18.1493 31.1377 18.1493 31.4227 18.3393C31.7078 18.4344 31.8979 18.7194 32.0879 19.0045C32.2779 19.2896 32.278 19.5746 32.278 19.9547V29.8371C32.278 30.2172 32.2779 30.5022 32.0879 30.7873C31.9929 31.0724 31.7078 31.2624 31.4227 31.4524C31.1377 31.4524 30.8526 31.4524 30.4725 31.4524ZM20.7802 29.552H30.2825V20.0497H28.382V22.1402C28.382 22.5203 28.382 22.8054 28.192 23.0905C28.097 23.3755 27.8119 23.5656 27.5268 23.7556C27.2418 23.9457 26.9567 23.9457 26.5766 23.9457H24.5811V26.0362C24.5811 26.4163 24.5811 26.7013 24.3911 26.9864C24.2961 27.2715 24.011 27.4615 23.7259 27.6515C23.4408 27.8416 23.1558 27.8416 22.7757 27.8416H20.7802V29.552Z" />
        <path fill="black" d="M22.8707 20.0497H20.5902C20.2101 20.0497 19.925 20.0497 19.6399 19.8597C19.3549 19.7647 19.1648 19.4796 18.9748 19.1945C18.8798 19.0045 18.8798 18.7194 18.8798 18.3393V16.0588C18.8798 15.6787 18.8798 15.3936 19.0698 15.1086C19.1648 14.8235 19.4499 14.6335 19.735 14.4434C19.925 14.3484 20.2101 14.3484 20.5902 14.3484H22.8707C23.2508 14.3484 23.5359 14.3484 23.8209 14.5384C24.106 14.6335 24.296 14.9185 24.4861 15.2036C24.5811 15.3936 24.5811 15.6787 24.5811 16.0588V18.3393C24.5811 18.7194 24.5811 19.0045 24.3911 19.2896C24.2961 19.5746 24.011 19.7647 23.7259 19.9547C23.5359 20.0497 23.2508 20.0497 22.8707 20.0497ZM20.7802 18.1493H22.6807V16.2488H20.7802V18.1493Z" />
        <path fill="black" d="M16.2191 25.7511H13.9386C13.5585 25.7511 13.2734 25.7511 12.9883 25.5611C12.7033 25.466 12.5132 25.181 12.3232 24.8959C12.2281 24.7059 12.2281 24.4208 12.2281 24.0407V21.7602C12.2281 21.3801 12.2281 21.095 12.4182 20.8099C12.5132 20.5249 12.7983 20.3348 13.0834 20.1448C13.2734 20.0497 13.5585 20.0497 13.9386 20.0497H16.2191C16.5992 20.0497 16.8843 20.0497 17.1693 20.2398C17.4544 20.3348 17.6444 20.6199 17.8345 20.9049C17.9295 21.095 17.9295 21.3801 17.9295 21.7602V24.0407C17.9295 24.4208 17.9295 24.7059 17.7395 24.9909C17.6444 25.276 17.3594 25.466 17.0743 25.6561C16.8843 25.7511 16.5992 25.7511 16.2191 25.7511ZM14.1286 23.8506H16.0291V21.9502H14.1286V23.8506Z" />
        <path fill="black" d="M15.2689 16.2488H12.9884C12.6083 16.2488 12.3232 16.2488 12.0381 16.0588C11.7531 15.9638 11.563 15.7737 11.468 15.4887C11.278 15.2036 11.278 14.9185 11.278 14.5384V12.2579C11.278 11.8778 11.278 11.5927 11.468 11.3077C11.563 11.0226 11.8481 10.8326 12.1332 10.6425C12.3232 10.5475 12.6083 10.5475 12.9884 10.5475H15.2689C15.649 10.5475 15.9341 10.5475 16.2191 10.7375C16.5042 10.8326 16.6942 11.1176 16.8843 11.4027C16.9793 11.5927 16.9793 11.8778 16.9793 12.2579V14.5384C16.9793 14.9185 16.9793 15.2036 16.7893 15.4887C16.6942 15.7737 16.5042 15.9638 16.2191 16.0588C15.9341 16.2488 15.649 16.2488 15.2689 16.2488ZM13.1784 14.3484H15.0789V12.4479H13.1784V14.3484Z" />
    </mask>
  </defs>
    <rect fill="currentColor" x="0.777954" width="42" height="42" rx="21" mask="url(#mask)"/>
</svg>
