<svg id="Layer_1" data-name="Layer 1" xmlns="http://www.w3.org/2000/svg" viewBox="0 0 50 50"><defs><style>.cls-1{fill:#191717;fill-rule:evenodd;}</style></defs><title>poxy-github-logo</title><path class="cls-1" d="M25,1.49a24.11,24.11,0,0,0-7.62,47c1.2.22,1.64-.52,1.64-1.16s0-2.09,0-4.1C12.29,44.67,10.87,40,10.87,40c-1.1-2.79-2.68-3.53-2.68-3.53C6,35,8.36,35,8.36,35a5.05,5.05,0,0,1,3.69,2.48c2.15,3.68,5.65,2.62,7,2a5.16,5.16,0,0,1,1.53-3.22c-5.35-.61-11-2.68-11-11.91a9.31,9.31,0,0,1,2.48-6.47,8.63,8.63,0,0,1,.24-6.38s2-.65,6.63,2.47A22.89,22.89,0,0,1,31,14c4.6-3.12,6.62-2.47,6.62-2.47a8.63,8.63,0,0,1,.24,6.38,9.26,9.26,0,0,1,2.48,6.47c0,9.26-5.64,11.29-11,11.89A5.76,5.76,0,0,1,31,40.7c0,3.22,0,5.82,0,6.61s.43,1.4,1.66,1.16A24.11,24.11,0,0,0,25,1.49Z"/></svg>